<svg xmlns="http://www.w3.org/2000/svg" width="680" height="680" viewBox="0 0 680 680">
<rect width="680" height="680" fill="none"/>
<defs>
<radialGradient id="cg" cx="50%" cy="50%" r="50%"><stop offset="0%" stop-color="#4ee8cc" stop-opacity=".4"/><stop offset="20%" stop-color="#4ee8cc" stop-opacity=".15"/><stop offset="50%" stop-color="#28b8a0" stop-opacity=".04"/><stop offset="100%" stop-color="#28b8a0" stop-opacity="0"/></radialGradient>
<radialGradient id="og" cx="50%" cy="50%" r="50%"><stop offset="0%" stop-color="#d4a850" stop-opacity=".12"/><stop offset="40%" stop-color="#d4a850" stop-opacity=".03"/><stop offset="100%" stop-color="#d4a850" stop-opacity="0"/></radialGradient>
<filter id="outerGlow" x="-20%" y="-20%" width="140%" height="140%"><feGaussianBlur in="SourceGraphic" stdDeviation="4" result="blur"/><feMerge><feMergeNode in="blur"/><feMergeNode in="SourceGraphic"/></feMerge></filter>
</defs>
<g transform="translate(340,340)">
<circle cx="0" cy="0" r="280" fill="url(#og)"/>
<circle cx="0" cy="0" r="120" fill="url(#cg)"/>
<ellipse cx="0" cy="0" rx="260" ry="260" fill="none" stroke="#56545e" stroke-width="1.2" opacity=".24"/>
<ellipse cx="0" cy="0" rx="185" ry="185" fill="none" stroke="#3a3842" stroke-width=".8" opacity=".15"/>
<ellipse cx="0" cy="0" rx="115" ry="115" fill="none" stroke="#3a3842" stroke-width=".6" opacity=".1"/>
<g opacity=".12"><circle cx="184" cy="0" r="1.5" fill="#28b8a0"/><circle cx="180" cy="36" r="1.2" fill="#28b8a0"/><circle cx="168" cy="70" r="1.5" fill="#28b8a0"/><circle cx="148" cy="104" r="1" fill="#28b8a0"/><circle cx="130" cy="130" r="1.8" fill="#28b8a0"/><circle cx="104" cy="148" r="1.2" fill="#28b8a0"/><circle cx="70" cy="168" r="1.5" fill="#28b8a0"/><circle cx="36" cy="180" r="1" fill="#28b8a0"/><circle cx="0" cy="184" r="1.5" fill="#28b8a0"/><circle cx="-36" cy="180" r="1.2" fill="#28b8a0"/><circle cx="-70" cy="168" r="1.5" fill="#28b8a0"/><circle cx="-104" cy="148" r="1" fill="#28b8a0"/><circle cx="-130" cy="130" r="1.8" fill="#28b8a0"/><circle cx="-148" cy="104" r="1.2" fill="#28b8a0"/><circle cx="-168" cy="70" r="1.5" fill="#28b8a0"/><circle cx="-180" cy="36" r="1" fill="#28b8a0"/><circle cx="-184" cy="0" r="1.5" fill="#28b8a0"/><circle cx="-180" cy="-36" r="1.2" fill="#28b8a0"/><circle cx="-168" cy="-70" r="1.5" fill="#28b8a0"/><circle cx="-148" cy="-104" r="1" fill="#28b8a0"/><circle cx="-130" cy="-130" r="1.8" fill="#28b8a0"/><circle cx="-104" cy="-148" r="1.2" fill="#28b8a0"/><circle cx="-70" cy="-168" r="1.5" fill="#28b8a0"/><circle cx="-36" cy="-180" r="1" fill="#28b8a0"/><circle cx="0" cy="-184" r="1.5" fill="#28b8a0"/><circle cx="36" cy="-180" r="1.2" fill="#28b8a0"/><circle cx="70" cy="-168" r="1.5" fill="#28b8a0"/><circle cx="104" cy="-148" r="1" fill="#28b8a0"/><circle cx="130" cy="-130" r="1.8" fill="#28b8a0"/><circle cx="148" cy="-104" r="1.2" fill="#28b8a0"/><circle cx="168" cy="-70" r="1.5" fill="#28b8a0"/><circle cx="180" cy="-36" r="1" fill="#28b8a0"/></g>
<g opacity=".08"><circle cx="258" cy="0" r="1.3" fill="#a07828"/><circle cx="250" cy="50" r="1.8" fill="#a07828"/><circle cx="230" cy="96" r="1" fill="#a07828"/><circle cx="183" cy="183" r="2" fill="#a07828"/><circle cx="96" cy="230" r="1.3" fill="#a07828"/><circle cx="50" cy="250" r="1.6" fill="#a07828"/><circle cx="0" cy="258" r="1.3" fill="#a07828"/><circle cx="-50" cy="250" r="1.8" fill="#a07828"/><circle cx="-96" cy="230" r="1" fill="#a07828"/><circle cx="-183" cy="183" r="2" fill="#a07828"/><circle cx="-230" cy="96" r="1.3" fill="#a07828"/><circle cx="-250" cy="50" r="1.6" fill="#a07828"/><circle cx="-258" cy="0" r="1.3" fill="#a07828"/><circle cx="-250" cy="-50" r="1.8" fill="#a07828"/><circle cx="-230" cy="-96" r="1" fill="#a07828"/><circle cx="-183" cy="-183" r="2" fill="#a07828"/><circle cx="-96" cy="-230" r="1.3" fill="#a07828"/><circle cx="-50" cy="-250" r="1.6" fill="#a07828"/><circle cx="0" cy="-258" r="1.3" fill="#a07828"/><circle cx="50" cy="-250" r="1.8" fill="#a07828"/><circle cx="96" cy="-230" r="1" fill="#a07828"/><circle cx="183" cy="-183" r="2" fill="#a07828"/><circle cx="230" cy="-96" r="1.3" fill="#a07828"/><circle cx="250" cy="-50" r="1.6" fill="#a07828"/></g>
<g stroke="#56545e" fill="none" opacity=".15" stroke-width=".5"><line x1="0" y1="-240" x2="-200" y2="0"/><line x1="0" y1="-240" x2="200" y2="0"/><line x1="240" y1="0" x2="0" y2="200"/><line x1="240" y1="0" x2="0" y2="-200"/><line x1="0" y1="240" x2="200" y2="0"/><line x1="0" y1="240" x2="-200" y2="0"/><line x1="-240" y1="0" x2="0" y2="200"/><line x1="-240" y1="0" x2="0" y2="-200"/></g>
<g stroke="#3a3842" fill="none" opacity=".1" stroke-width=".4"><line x1="0" y1="-240" x2="-160" y2="0"/><line x1="0" y1="-240" x2="160" y2="0"/><line x1="240" y1="0" x2="0" y2="160"/><line x1="240" y1="0" x2="0" y2="-160"/><line x1="0" y1="240" x2="160" y2="0"/><line x1="0" y1="240" x2="-160" y2="0"/><line x1="-240" y1="0" x2="0" y2="160"/><line x1="-240" y1="0" x2="0" y2="-160"/></g>
<g stroke="#3a3842" fill="none" opacity=".08" stroke-width=".35"><line x1="0" y1="-200" x2="-125" y2="0"/><line x1="0" y1="-200" x2="125" y2="0"/><line x1="200" y1="0" x2="0" y2="125"/><line x1="200" y1="0" x2="0" y2="-125"/><line x1="0" y1="200" x2="125" y2="0"/><line x1="0" y1="200" x2="-125" y2="0"/><line x1="-200" y1="0" x2="0" y2="125"/><line x1="-200" y1="0" x2="0" y2="-125"/></g>
<g stroke="#28b8a0" fill="none" opacity=".08" stroke-width=".35"><line x1="0" y1="-240" x2="-125" y2="0"/><line x1="0" y1="-240" x2="125" y2="0"/><line x1="240" y1="0" x2="0" y2="125"/><line x1="240" y1="0" x2="0" y2="-125"/><line x1="0" y1="240" x2="125" y2="0"/><line x1="0" y1="240" x2="-125" y2="0"/><line x1="-240" y1="0" x2="0" y2="125"/><line x1="-240" y1="0" x2="0" y2="-125"/></g>
<g stroke="#a07828" fill="none" opacity=".065" stroke-width=".3"><line x1="0" y1="-200" x2="-92" y2="0"/><line x1="0" y1="-200" x2="92" y2="0"/><line x1="200" y1="0" x2="0" y2="92"/><line x1="200" y1="0" x2="0" y2="-92"/><line x1="0" y1="200" x2="92" y2="0"/><line x1="0" y1="200" x2="-92" y2="0"/><line x1="-200" y1="0" x2="0" y2="92"/><line x1="-200" y1="0" x2="0" y2="-92"/></g>
<g stroke="#28262e" fill="none" opacity=".065" stroke-width=".3"><line x1="0" y1="-160" x2="-92" y2="0"/><line x1="0" y1="-160" x2="92" y2="0"/><line x1="160" y1="0" x2="0" y2="92"/><line x1="160" y1="0" x2="0" y2="-92"/><line x1="0" y1="160" x2="92" y2="0"/><line x1="0" y1="160" x2="-92" y2="0"/><line x1="-160" y1="0" x2="0" y2="92"/><line x1="-160" y1="0" x2="0" y2="-92"/></g>
<polygon points="0,-240 240,0 0,240 -240,0" fill="none" stroke="#4ee8cc" stroke-width="6" opacity=".08" filter="url(#outerGlow)"/>
<polygon points="0,-240 240,0 0,240 -240,0" fill="none" stroke="#6ef0dc" stroke-width="2.2" opacity=".55"/>
<polygon points="0,-233 233,0 0,233 -233,0" fill="none" stroke="#4ee8cc" stroke-width="1.2" opacity=".35"/>
<polygon points="0,-200 200,0 0,200 -200,0" fill="none" stroke="#56545e" stroke-width="1.2" opacity=".28"/>
<polygon points="0,-160 160,0 0,160 -160,0" fill="none" stroke="#56545e" stroke-width="1.4" opacity=".35"/>
<polygon points="0,-125 125,0 0,125 -125,0" fill="none" stroke="#787680" stroke-width="1.6" opacity=".42"/>
<polygon points="0,-92 92,0 0,92 -92,0" fill="none" stroke="#787680" stroke-width="1.8" opacity=".5"/>
<polygon points="0,-62 62,0 0,62 -62,0" fill="none" stroke="#a09ea8" stroke-width="1.8" opacity=".45"/>
<polygon points="0,-38 38,0 0,38 -38,0" fill="none" stroke="#a09ea8" stroke-width="1.2" opacity=".25"/>
<polygon points="0,-18 18,0 0,18 -18,0" fill="none" stroke="#787680" stroke-width=".8" opacity=".18"/>
<polygon points="0,-7 7,0 0,7 -7,0" fill="#4ee8cc" opacity=".7"/>
<g stroke="#28b8a0" fill="none" opacity=".22" stroke-width=".8"><path d="M0,-200 Q-56,-144 -100,-100 Q-144,-56 -200,0"/><path d="M0,-200 Q56,-144 100,-100 Q144,-56 200,0"/><path d="M200,0 Q144,56 100,100 Q56,144 0,200"/><path d="M-200,0 Q-144,56 -100,100 Q-56,144 0,200"/></g>
<g stroke="#a07828" fill="none" opacity=".18" stroke-width=".7"><path d="M0,-160 Q-42,-118 -80,-80 Q-118,-42 -160,0"/><path d="M0,-160 Q42,-118 80,-80 Q118,-42 160,0"/><path d="M160,0 Q118,42 80,80 Q42,118 0,160"/><path d="M-160,0 Q-118,42 -80,80 Q-42,118 0,160"/></g>
<g stroke="#3cd8bc" fill="none" opacity=".24" stroke-width=".9"><path d="M0,-240 Q-72,-168 -120,-120 Q-168,-72 -240,0"/><path d="M0,-240 Q72,-168 120,-120 Q168,-72 240,0"/><path d="M240,0 Q168,72 120,120 Q72,168 0,240"/><path d="M-240,0 Q-168,72 -120,120 Q-72,168 0,240"/></g>
<g stroke="#d4a850" fill="none" opacity=".15" stroke-width=".6"><path d="M0,-220 Q-48,-172 -110,-110 Q-172,-48 -220,0"/><path d="M0,-220 Q48,-172 110,-110 Q172,-48 220,0"/><path d="M220,0 Q172,48 110,110 Q48,172 0,220"/><path d="M-220,0 Q-172,48 -110,110 Q-48,172 0,220"/></g>
<g stroke="#28b8a0" fill="none" opacity=".17" stroke-width=".6"><path d="M0,-180 Q-38,-142 -90,-90 Q-142,-38 -180,0"/><path d="M0,-180 Q38,-142 90,-90 Q142,-38 180,0"/><path d="M180,0 Q142,38 90,90 Q38,142 0,180"/><path d="M-180,0 Q-142,38 -90,90 Q-38,142 0,180"/></g>
<g stroke="#c09038" fill="none" opacity=".12" stroke-width=".5"><path d="M0,-140 Q-30,-110 -70,-70 Q-110,-30 -140,0"/><path d="M0,-140 Q30,-110 70,-70 Q110,-30 140,0"/><path d="M140,0 Q110,30 70,70 Q30,110 0,140"/><path d="M-140,0 Q-110,30 -70,70 Q-30,110 0,140"/></g>
<g opacity=".45"><polygon points="0,-200 -15,-185 0,-170 15,-185" fill="#28262e" fill-opacity=".1" stroke="#787680" stroke-width=".8"/><polygon points="200,0 185,-15 170,0 185,15" fill="#28262e" fill-opacity=".1" stroke="#787680" stroke-width=".8"/><polygon points="0,200 15,185 0,170 -15,185" fill="#28262e" fill-opacity=".1" stroke="#787680" stroke-width=".8"/><polygon points="-200,0 -185,15 -170,0 -185,-15" fill="#28262e" fill-opacity=".1" stroke="#787680" stroke-width=".8"/></g>
<g opacity=".35"><polygon points="0,-160 -11,-149 0,-138 11,-149" fill="#28262e" fill-opacity=".08" stroke="#56545e" stroke-width=".6"/><polygon points="160,0 149,-11 138,0 149,11" fill="#28262e" fill-opacity=".08" stroke="#56545e" stroke-width=".6"/><polygon points="0,160 11,149 0,138 -11,149" fill="#28262e" fill-opacity=".08" stroke="#56545e" stroke-width=".6"/><polygon points="-160,0 -149,11 -138,0 -149,-11" fill="#28262e" fill-opacity=".08" stroke="#56545e" stroke-width=".6"/></g>
<g opacity=".25"><polygon points="0,-125 -8,-117 0,-109 8,-117" fill="#28262e" fill-opacity=".06" stroke="#56545e" stroke-width=".5"/><polygon points="125,0 117,-8 109,0 117,8" fill="#28262e" fill-opacity=".06" stroke="#56545e" stroke-width=".5"/><polygon points="0,125 8,117 0,109 -8,117" fill="#28262e" fill-opacity=".06" stroke="#56545e" stroke-width=".5"/><polygon points="-125,0 -117,8 -109,0 -117,-8" fill="#28262e" fill-opacity=".06" stroke="#56545e" stroke-width=".5"/></g>
<g opacity=".18"><polygon points="-141,-141 -149,-134 -141,-127 -134,-134" fill="#28262e" fill-opacity=".05" stroke="#3a3842" stroke-width=".4"/><polygon points="141,-141 134,-134 141,-127 149,-134" fill="#28262e" fill-opacity=".05" stroke="#3a3842" stroke-width=".4"/><polygon points="141,141 149,134 141,127 134,134" fill="#28262e" fill-opacity=".05" stroke="#3a3842" stroke-width=".4"/><polygon points="-141,141 -134,134 -141,127 -149,134" fill="#28262e" fill-opacity=".05" stroke="#3a3842" stroke-width=".4"/></g>
<g opacity=".13"><polygon points="-113,-113 -119,-107 -113,-101 -107,-107" fill="#28262e" fill-opacity=".04" stroke="#3a3842" stroke-width=".35"/><polygon points="113,-113 107,-107 113,-101 119,-107" fill="#28262e" fill-opacity=".04" stroke="#3a3842" stroke-width=".35"/><polygon points="113,113 119,107 113,101 107,107" fill="#28262e" fill-opacity=".04" stroke="#3a3842" stroke-width=".35"/><polygon points="-113,113 -107,107 -113,101 -119,107" fill="#28262e" fill-opacity=".04" stroke="#3a3842" stroke-width=".35"/></g>
<g fill="none" opacity=".55"><path d="M0,-5 C-8,-18 -22,-42 -38,-58 C-52,-72 -62,-68 -58,-55 C-52,-38 -32,-25 -22,-32 C-12,-38 -4,-55 8,-68 C20,-78 34,-74 38,-62 C42,-48 30,-30 18,-38 C8,-44 -2,-58 -12,-70 C-22,-78 -32,-76 -36,-66 C-40,-54 -32,-38 -20,-44" stroke="#6ef0dc" stroke-width="1.4"/><path d="M0,5 C8,18 22,42 38,58 C52,72 62,68 58,55 C52,38 32,25 22,32 C12,38 4,55 -8,68 C-20,78 -34,74 -38,62 C-42,48 -30,30 -18,38 C-8,44 2,58 12,70 C22,78 32,76 36,66 C40,54 32,38 20,44" stroke="#6ef0dc" stroke-width="1.4"/></g>
<g fill="none" opacity=".3"><path d="M0,-5 C-10,-22 -28,-52 -48,-72 C-65,-88 -78,-82 -74,-65 C-68,-44 -42,-28 -28,-38 C-16,-46 -5,-68 12,-85 C28,-98 44,-92 50,-76 C55,-58 40,-36 24,-46 C10,-54 -3,-72 -16,-88 C-28,-98 -40,-95 -46,-82 C-52,-66 -42,-46 -26,-54" stroke="#3cd8bc" stroke-width=".9"/><path d="M0,5 C10,22 28,52 48,72 C65,88 78,82 74,65 C68,44 42,28 28,38 C16,46 5,68 -12,85 C-28,98 -44,92 -50,76 C-55,58 -40,36 -24,46 C-10,54 3,72 16,88 C28,98 40,95 46,82 C52,66 42,46 26,54" stroke="#3cd8bc" stroke-width=".9"/></g>
<g stroke="#e4c070" fill="none" opacity=".6"><path d="M0,-7 L0,-18" stroke-width="1.8"/><path d="M0,-18 L-8,-32" stroke-width="1.5"/><path d="M0,-18 L8,-32" stroke-width="1.5"/><path d="M-8,-32 L-16,-50" stroke-width="1.2"/><path d="M-8,-32 L-2,-52" stroke-width="1.2"/><path d="M8,-32 L2,-52" stroke-width="1.2"/><path d="M8,-32 L16,-50" stroke-width="1.2"/><path d="M-16,-50 L-24,-70" stroke-width=".9"/><path d="M-16,-50 L-10,-72" stroke-width=".9"/><path d="M-2,-52 L-8,-74" stroke-width=".9"/><path d="M-2,-52 L4,-74" stroke-width=".9"/><path d="M2,-52 L-4,-74" stroke-width=".9"/><path d="M2,-52 L8,-74" stroke-width=".9"/><path d="M16,-50 L10,-72" stroke-width=".9"/><path d="M16,-50 L24,-70" stroke-width=".9"/><path d="M-24,-70 L-30,-88" stroke-width=".6"/><path d="M-24,-70 L-20,-90" stroke-width=".6"/><path d="M24,-70 L20,-90" stroke-width=".6"/><path d="M24,-70 L30,-88" stroke-width=".6"/><circle cx="0" cy="-18" r="2.5" fill="#d4a850" stroke="none"/><circle cx="-8" cy="-32" r="1.8" fill="#d4a850" stroke="none"/><circle cx="8" cy="-32" r="1.8" fill="#d4a850" stroke="none"/></g>
<g stroke="#e4c070" fill="none" opacity=".6" transform="rotate(90)"><path d="M0,-7 L0,-18" stroke-width="1.8"/><path d="M0,-18 L-8,-32" stroke-width="1.5"/><path d="M0,-18 L8,-32" stroke-width="1.5"/><path d="M-8,-32 L-16,-50" stroke-width="1.2"/><path d="M-8,-32 L-2,-52" stroke-width="1.2"/><path d="M8,-32 L2,-52" stroke-width="1.2"/><path d="M8,-32 L16,-50" stroke-width="1.2"/><path d="M-16,-50 L-24,-70" stroke-width=".9"/><path d="M-16,-50 L-10,-72" stroke-width=".9"/><path d="M-2,-52 L-8,-74" stroke-width=".9"/><path d="M-2,-52 L4,-74" stroke-width=".9"/><path d="M2,-52 L-4,-74" stroke-width=".9"/><path d="M2,-52 L8,-74" stroke-width=".9"/><path d="M16,-50 L10,-72" stroke-width=".9"/><path d="M16,-50 L24,-70" stroke-width=".9"/><path d="M-24,-70 L-30,-88" stroke-width=".6"/><path d="M-24,-70 L-20,-90" stroke-width=".6"/><path d="M24,-70 L20,-90" stroke-width=".6"/><path d="M24,-70 L30,-88" stroke-width=".6"/><circle cx="0" cy="-18" r="2.5" fill="#d4a850" stroke="none"/><circle cx="-8" cy="-32" r="1.8" fill="#d4a850" stroke="none"/><circle cx="8" cy="-32" r="1.8" fill="#d4a850" stroke="none"/></g>
<g stroke="#e4c070" fill="none" opacity=".6" transform="rotate(180)"><path d="M0,-7 L0,-18" stroke-width="1.8"/><path d="M0,-18 L-8,-32" stroke-width="1.5"/><path d="M0,-18 L8,-32" stroke-width="1.5"/><path d="M-8,-32 L-16,-50" stroke-width="1.2"/><path d="M-8,-32 L-2,-52" stroke-width="1.2"/><path d="M8,-32 L2,-52" stroke-width="1.2"/><path d="M8,-32 L16,-50" stroke-width="1.2"/><path d="M-16,-50 L-24,-70" stroke-width=".9"/><path d="M-16,-50 L-10,-72" stroke-width=".9"/><path d="M-2,-52 L-8,-74" stroke-width=".9"/><path d="M-2,-52 L4,-74" stroke-width=".9"/><path d="M2,-52 L-4,-74" stroke-width=".9"/><path d="M2,-52 L8,-74" stroke-width=".9"/><path d="M16,-50 L10,-72" stroke-width=".9"/><path d="M16,-50 L24,-70" stroke-width=".9"/><path d="M-24,-70 L-30,-88" stroke-width=".6"/><path d="M-24,-70 L-20,-90" stroke-width=".6"/><path d="M24,-70 L20,-90" stroke-width=".6"/><path d="M24,-70 L30,-88" stroke-width=".6"/><circle cx="0" cy="-18" r="2.5" fill="#d4a850" stroke="none"/><circle cx="-8" cy="-32" r="1.8" fill="#d4a850" stroke="none"/><circle cx="8" cy="-32" r="1.8" fill="#d4a850" stroke="none"/></g>
<g stroke="#e4c070" fill="none" opacity=".6" transform="rotate(270)"><path d="M0,-7 L0,-18" stroke-width="1.8"/><path d="M0,-18 L-8,-32" stroke-width="1.5"/><path d="M0,-18 L8,-32" stroke-width="1.5"/><path d="M-8,-32 L-16,-50" stroke-width="1.2"/><path d="M-8,-32 L-2,-52" stroke-width="1.2"/><path d="M8,-32 L2,-52" stroke-width="1.2"/><path d="M8,-32 L16,-50" stroke-width="1.2"/><path d="M-16,-50 L-24,-70" stroke-width=".9"/><path d="M-16,-50 L-10,-72" stroke-width=".9"/><path d="M-2,-52 L-8,-74" stroke-width=".9"/><path d="M-2,-52 L4,-74" stroke-width=".9"/><path d="M2,-52 L-4,-74" stroke-width=".9"/><path d="M2,-52 L8,-74" stroke-width=".9"/><path d="M16,-50 L10,-72" stroke-width=".9"/><path d="M16,-50 L24,-70" stroke-width=".9"/><path d="M-24,-70 L-30,-88" stroke-width=".6"/><path d="M-24,-70 L-20,-90" stroke-width=".6"/><path d="M24,-70 L20,-90" stroke-width=".6"/><path d="M24,-70 L30,-88" stroke-width=".6"/><circle cx="0" cy="-18" r="2.5" fill="#d4a850" stroke="none"/><circle cx="-8" cy="-32" r="1.8" fill="#d4a850" stroke="none"/><circle cx="8" cy="-32" r="1.8" fill="#d4a850" stroke="none"/></g>
<g opacity=".45"><path d="M-62,-62 Q-92,-30 -92,0" fill="none" stroke="#3cd8bc" stroke-width="1.4"/><path d="M62,-62 Q92,-30 92,0" fill="none" stroke="#3cd8bc" stroke-width="1.4"/><path d="M62,62 Q92,30 92,0" fill="none" stroke="#3cd8bc" stroke-width="1.4"/><path d="M-62,62 Q-92,30 -92,0" fill="none" stroke="#3cd8bc" stroke-width="1.4"/><path d="M-62,-62 Q-30,-92 0,-92" fill="none" stroke="#3cd8bc" stroke-width="1.4"/><path d="M62,-62 Q30,-92 0,-92" fill="none" stroke="#3cd8bc" stroke-width="1.4"/><path d="M62,62 Q30,92 0,92" fill="none" stroke="#3cd8bc" stroke-width="1.4"/><path d="M-62,62 Q-30,92 0,92" fill="none" stroke="#3cd8bc" stroke-width="1.4"/></g>
<g opacity=".5"><path d="M-38,-38 C-55,-25 -60,-8 -62,0 C-60,8 -55,25 -38,38" fill="none" stroke="#4ee8cc" stroke-width="1.1"/><path d="M38,-38 C55,-25 60,-8 62,0 C60,8 55,25 38,38" fill="none" stroke="#4ee8cc" stroke-width="1.1"/><path d="M-38,-38 C-25,-55 -8,-60 0,-62 C8,-60 25,-55 38,-38" fill="none" stroke="#4ee8cc" stroke-width="1.1"/><path d="M-38,38 C-25,55 -8,60 0,62 C8,60 25,55 38,38" fill="none" stroke="#4ee8cc" stroke-width="1.1"/></g>
<g opacity=".18"><path d="M-22,-10 C-28,-6 -30,0 -28,6 C-26,10 -22,12 -18,10" fill="none" stroke="#3cd8bc" stroke-width=".7"/><path d="M-18,10 C-14,8 -12,4 -14,0 C-16,-4 -20,-6 -22,-4" fill="none" stroke="#c09038" stroke-width=".5"/><path d="M22,10 C28,6 30,0 28,-6 C26,-10 22,-12 18,-10" fill="none" stroke="#3cd8bc" stroke-width=".7"/><path d="M18,-10 C14,-8 12,-4 14,0 C16,4 20,6 22,4" fill="none" stroke="#c09038" stroke-width=".5"/><path d="M-10,-22 C-6,-28 0,-30 6,-28 C10,-26 12,-22 10,-18" fill="none" stroke="#3cd8bc" stroke-width=".7"/><path d="M10,-18 C8,-14 4,-12 0,-14 C-4,-16 -6,-20 -4,-22" fill="none" stroke="#c09038" stroke-width=".5"/><path d="M10,22 C6,28 0,30 -6,28 C-10,26 -12,22 -10,18" fill="none" stroke="#3cd8bc" stroke-width=".7"/><path d="M-10,18 C-8,14 -4,12 0,14 C4,16 6,20 4,22" fill="none" stroke="#c09038" stroke-width=".5"/></g>
<g opacity=".15"><path d="M-12,-4 L-16,-4 L-16,4 L-12,4" fill="none" stroke="#3cd8bc" stroke-width=".8"/><path d="M12,-4 L16,-4 L16,4 L12,4" fill="none" stroke="#3cd8bc" stroke-width=".8"/><path d="M-4,-12 L-4,-16 L4,-16 L4,-12" fill="none" stroke="#3cd8bc" stroke-width=".8"/><path d="M-4,12 L-4,16 L4,16 L4,12" fill="none" stroke="#3cd8bc" stroke-width=".8"/></g>
<g fill="#4ee8cc" opacity=".4"><circle cx="-44" cy="-44" r="3"/><circle cx="44" cy="-44" r="3"/><circle cx="44" cy="44" r="3"/><circle cx="-44" cy="44" r="3"/></g>
<g fill="#d4a850" opacity=".35"><circle cx="-65" cy="-20" r="2.3"/><circle cx="65" cy="-20" r="2.3"/><circle cx="65" cy="20" r="2.3"/><circle cx="-65" cy="20" r="2.3"/><circle cx="-20" cy="-65" r="2.3"/><circle cx="20" cy="-65" r="2.3"/><circle cx="20" cy="65" r="2.3"/><circle cx="-20" cy="65" r="2.3"/></g>
<g opacity=".5"><line x1="0" y1="-7" x2="0" y2="-14" stroke="#6ef0dc" stroke-width="1.6"/><line x1="7" y1="0" x2="14" y2="0" stroke="#6ef0dc" stroke-width="1.6"/><line x1="0" y1="7" x2="0" y2="14" stroke="#6ef0dc" stroke-width="1.6"/><line x1="-7" y1="0" x2="-14" y2="0" stroke="#6ef0dc" stroke-width="1.6"/><line x1="5" y1="-5" x2="10" y2="-10" stroke="#e4c070" stroke-width="1.1"/><line x1="5" y1="5" x2="10" y2="10" stroke="#e4c070" stroke-width="1.1"/><line x1="-5" y1="-5" x2="-10" y2="-10" stroke="#e4c070" stroke-width="1.1"/><line x1="-5" y1="5" x2="-10" y2="10" stroke="#e4c070" stroke-width="1.1"/></g>
</g>
</svg>
